<svg width="189" height="125" viewBox="0 0 189 125" fill="none" xmlns="http://www.w3.org/2000/svg">
<path d="M74.0084 82.7228C73.547 82.6952 73.0849 82.7653 72.6528 82.9284C72.2206 83.0915 71.8282 83.3439 71.5013 83.669C71.1745 83.9941 70.9207 84.3844 70.7567 84.8143C70.5927 85.2441 70.5223 85.7036 70.55 86.1625C70.55 92.4214 68.684 98.5396 65.1879 103.744C61.6919 108.948 56.7228 113.004 50.9091 115.399C45.0953 117.794 38.6981 118.421 32.5262 117.2C26.3544 115.979 20.6852 112.965 16.2356 108.539C11.7859 104.113 8.75569 98.4748 7.52803 92.3362C6.30038 86.1976 6.93046 79.8348 9.33858 74.0524C11.7467 68.27 15.8247 63.3277 21.057 59.8505C26.2892 56.3733 32.4406 54.5173 38.7334 54.5173L39.425 47.6379H38.7334C31.0726 47.6379 23.5839 49.8973 17.2143 54.1305C10.8446 58.3636 5.88005 64.3803 2.94842 71.4198C0.0167825 78.4593 -0.750267 86.2053 0.744268 93.6783C2.2388 101.151 5.9278 108.016 11.3448 113.404C16.7617 118.791 23.6633 122.46 31.1769 123.947C38.6904 125.433 46.4784 124.67 53.556 121.755C60.6335 118.839 66.6829 113.901 70.9389 107.566C75.195 101.23 77.4667 93.782 77.4667 86.1625C77.4944 85.7036 77.424 85.2441 77.26 84.8143C77.096 84.3844 76.8422 83.9941 76.5154 83.669C76.1885 83.3439 75.7961 83.0915 75.3639 82.9284C74.9318 82.7653 74.4697 82.6952 74.0084 82.7228ZM149.4 47.6379C144.803 47.7085 140.248 48.5217 135.913 50.0457L139.025 56.2371C142.381 55.1648 145.876 54.5854 149.4 54.5173C155.632 54.4591 161.743 56.2223 166.976 59.588C172.209 62.9538 176.333 67.7739 178.836 73.45C181.339 79.1262 182.111 85.4085 181.056 91.5173C180.002 97.626 177.166 103.292 172.903 107.813C168.639 112.333 163.135 115.508 157.072 116.945C151.01 118.381 144.658 118.015 138.803 115.893C132.948 113.77 127.848 109.984 124.138 105.005C120.427 100.025 118.268 94.0714 117.929 87.8824L111.013 87.5384C111.315 95.0628 113.836 102.332 118.263 108.442C122.69 114.551 128.826 119.229 135.907 121.894C142.988 124.559 150.701 125.093 158.085 123.428C165.469 121.764 172.198 117.976 177.432 112.535C182.667 107.094 186.176 100.242 187.522 92.8314C188.869 85.4211 187.993 77.7805 185.005 70.8616C182.016 63.9427 177.046 58.0514 170.715 53.9218C164.384 49.7922 156.971 47.6068 149.4 47.6379Z" fill="black"/>
<path d="M132.8 59.3328L129.688 53.1414C124.797 56.0352 120.616 59.9748 117.446 64.6747C114.275 69.3746 112.196 74.7171 111.358 80.315L118.275 80.6589C119.093 76.3023 120.805 72.16 123.304 68.4908C125.803 64.8215 129.036 61.704 132.8 59.3328Z" fill="black"/>
<path d="M46.3417 3.60974H60.175M112.05 16.3366H132.8" stroke="black" stroke-width="6" stroke-linecap="round" stroke-linejoin="round"/>
<path d="M39.7709 86.1625L45.65 12.553M91.3 82.7228L46.3417 31.1273M122.425 31.1273L150.092 86.1625M46.3417 31.1273H118.967M125.883 25.6238L91.3 82.7228M91.3 82.7228L150.092 86.1625" stroke="black" stroke-width="7" stroke-linecap="round" stroke-linejoin="round"/>
<path d="M39.7709 86.1625L45.65 12.553M91.3 82.7228L46.3417 31.1273M122.425 31.1273L150.092 86.1625M46.3417 31.1273H118.967M125.883 25.6238L91.3 82.7228M91.3 82.7228L150.092 86.1625" stroke="#EA5A47" stroke-width="6.1" stroke-linecap="round" stroke-linejoin="round"/>
</svg>
