<svg width="234" height="234" viewBox="0 0 234 234" fill="none" xmlns="http://www.w3.org/2000/svg">
<path d="M117 39C98.8545 39.0017 81.1557 44.6287 66.3407 55.106C51.5257 65.5834 40.3231 80.3959 34.2754 97.5039C28.2278 114.612 27.6324 133.174 32.5714 150.635C37.5104 168.095 47.7408 183.595 61.854 195H172.146C186.259 183.595 196.49 168.095 201.429 150.635C206.368 133.174 205.772 114.612 199.725 97.5039C193.677 80.3959 182.474 65.5834 167.659 55.106C152.844 44.6287 135.146 39.0017 117 39V39Z" stroke="#FFF4DE" stroke-width="9" stroke-linecap="round" stroke-linejoin="round"/>
<path d="M39 87.75H124.8C126.284 87.7519 127.747 88.0923 129.079 88.7453C130.411 89.3984 131.577 90.3468 132.487 91.5184C133.397 92.6899 134.028 94.0538 134.332 95.506C134.635 96.9582 134.603 98.4605 134.238 99.8985C129.295 119.399 118.677 133.224 102.375 141.375C82.875 151.125 60.1283 156 34.125 156" stroke="#FFF4DE" stroke-width="9" stroke-linecap="round" stroke-linejoin="round"/>
</svg>
